<svg width="48" height="48" viewBox="0 0 48 48" fill="none" xmlns="http://www.w3.org/2000/svg">
  <rect width="48" height="48" rx="12" fill="url(#paint0_linear)"/>
  <g>
    <path d="M14 34V14a2 2 0 0 1 2-2h7a2 2 0 0 1 2 2v20" stroke="white" stroke-width="2.5" stroke-linecap="round" stroke-linejoin="round"/>
    <path d="M34 34V14a2 2 0 0 0-2-2h-7a2 2 0 0 0-2 2v20" stroke="white" stroke-width="2.5" stroke-linecap="round" stroke-linejoin="round"/>
    <path d="M14 34a8 8 0 0 1 8-8h4a8 8 0 0 1 8 8" stroke="white" stroke-width="2.5" stroke-linecap="round" stroke-linejoin="round"/>
  </g>
  <defs>
    <linearGradient id="paint0_linear" x1="0" y1="0" x2="48" y2="48" gradientUnits="userSpaceOnUse">
      <stop stop-color="oklch(0.735 0.156 85.87)"/>
      <stop offset="1" stop-color="oklch(0.635 0.156 85.87)"/>
    </linearGradient>
  </defs>
</svg> 